<svg version="1.1" viewBox="0.0 0.0 36.0 36.0" fill="none" stroke="none" stroke-linecap="square" stroke-miterlimit="10" xmlns:xlink="http://www.w3.org/1999/xlink" xmlns="http://www.w3.org/2000/svg"><clipPath id="p.0"><path d="m0 0l36.0 0l0 36.0l-36.0 0l0 -36.0z" clip-rule="nonzero"/></clipPath><g clip-path="url(#p.0)"><path fill="#000000" fill-opacity="0.0" d="m0 0l36.0 0l0 36.0l-36.0 0z" fill-rule="evenodd"/><path fill="#000000" d="m0 0l36.0 0l0 36.0l-36.0 0z" fill-rule="evenodd"/><path fill="#000000" fill-opacity="0.0" d="m-5.280836 -3.32021l65.51181 0l0 42.015747l-65.51181 0z" fill-rule="evenodd"/><path fill="#ffffff" d="m4.250414 19.802914l1.59375 -0.21875q0.078125 1.53125 0.578125 2.109375q0.515625 0.5625 1.421875 0.5625q0.65625 0 1.140625 -0.296875q0.484375 -0.3125 0.65625 -0.828125q0.1875 -0.53125 0.1875 -1.6875l0 -9.203125l1.765625 0l0 9.109375q0 1.671875 -0.40625 2.59375q-0.40625 0.921875 -1.28125 1.40625q-0.875 0.484375 -2.0625 0.484375q-1.75 0 -2.6875 -1.015625q-0.9375 -1.015625 -0.90625 -3.015625zm10.484375 3.796875l0 -1.875l1.875 0l0 1.875l-1.875 0zm4.995804 0l0 -13.359375l1.765625 0l0 5.484375l6.9375 0l0 -5.484375l1.765625 0l0 13.359375l-1.765625 0l0 -6.296875l-6.9375 0l0 6.296875l-1.765625 0z" fill-rule="nonzero"/></g></svg>